name rise36.2859peak64.2979fall75.1499.mot
datacolumns 19
datarows 26
range 18.10992900000000 18.15160200000000
endheader
time	ground_force1_vx	ground_force1_vy	ground_force1_vz	ground_force1_px	ground_force1_py	ground_force1_pz	ground_force2_vx	ground_force2_vy	ground_force2_vz	ground_force2_px	ground_force2_py	ground_force2_pz	ground_torque1_x	ground_torque1_y	ground_torque1_z	ground_torque2_x	ground_torque2_y	ground_torque2_z	
18.10992900000000	-7.64313200000000	44.44230400000000	-13.22173600000000	0.41216400000000	0.00000000000000	0.07479700000000	-54.12717800000000	786.34318800000005	-47.11764500000000	0.22014200000000	0.00000000000000	-0.09648200000000	0.00000000000000	-11.89267900000000	0.00000000000000	0.00000000000000	-29.06877000000000	0.00000000000000	
18.11160200000000	-8.14015000000000	50.78735300000000	-14.55181700000000	0.41545100000000	0.00000000000000	0.07572700000000	-54.83998200000000	783.90983200000005	-46.70509200000000	0.21905500000000	0.00000000000000	-0.09641200000000	0.00000000000000	-13.16155300000000	0.00000000000000	0.00000000000000	-28.94644900000000	0.00000000000000	
18.11326600000000	-8.47585200000000	57.06985800000000	-15.71868600000000	0.41847100000000	0.00000000000000	0.07659500000000	-55.56510800000000	781.38306699999998	-46.27917500000000	0.21795900000000	0.00000000000000	-0.09634100000000	0.00000000000000	-14.29578800000000	0.00000000000000	0.00000000000000	-28.82358500000000	0.00000000000000	
18.11493600000000	-8.63934200000000	63.22808300000000	-16.70235000000000	0.42126200000000	0.00000000000000	0.07740900000000	-56.30216500000000	778.76117199999999	-45.83978400000000	0.21685100000000	0.00000000000000	-0.09626900000000	0.00000000000000	-15.27610400000000	0.00000000000000	0.00000000000000	-28.70014300000000	0.00000000000000	
18.11660000000000	-8.62763600000000	69.22486700000000	-17.49346500000000	0.42385300000000	0.00000000000000	0.07817500000000	-57.05067800000000	776.04232600000000	-45.38681400000000	0.21573400000000	0.00000000000000	-0.09619600000000	0.00000000000000	-16.09277100000000	0.00000000000000	0.00000000000000	-28.57607600000000	0.00000000000000	
18.11826500000000	-8.44488300000000	75.04702700000000	-18.09257200000000	0.42627100000000	0.00000000000000	0.07889800000000	-57.81008400000000	773.22460999999998	-44.92016100000000	0.21460600000000	0.00000000000000	-0.09612200000000	0.00000000000000	-16.74500900000000	0.00000000000000	0.00000000000000	-28.45132100000000	0.00000000000000	
18.11993100000000	-8.10112700000000	80.70287600000000	-18.50863700000000	0.42853700000000	0.00000000000000	0.07958200000000	-58.57973400000000	770.30600800000002	-44.43973100000000	0.21346900000000	0.00000000000000	-0.09604700000000	0.00000000000000	-17.23975700000000	0.00000000000000	0.00000000000000	-28.32580400000000	0.00000000000000	
18.12160000000000	-7.61080800000000	86.21840500000000	-18.75715600000000	0.43067000000000	0.00000000000000	0.08023200000000	-59.35888900000000	767.28441199999997	-43.94543500000000	0.21232300000000	0.00000000000000	-0.09597000000000	0.00000000000000	-17.59001200000000	0.00000000000000	0.00000000000000	-28.19943400000000	0.00000000000000	
18.12326800000000	-6.99115100000000	91.63266299999999	-18.85805300000000	0.43268600000000	0.00000000000000	0.08085000000000	-60.14672100000000	764.15762800000005	-43.43719300000000	0.21116700000000	0.00000000000000	-0.09589200000000	0.00000000000000	-17.81296400000000	0.00000000000000	0.00000000000000	-28.07210900000000	0.00000000000000	
18.12492700000000	-6.26061300000000	96.99286700000000	-18.83358000000000	0.43459900000000	0.00000000000000	0.08143900000000	-60.94231000000000	760.92338099999995	-42.91493700000000	0.21000400000000	0.00000000000000	-0.09581200000000	0.00000000000000	-17.92810300000000	0.00000000000000	0.00000000000000	-27.94371300000000	0.00000000000000	
18.12659600000000	-5.43749700000000	102.34967899999999	-18.70638800000000	0.43642000000000	0.00000000000000	0.08200200000000	-61.74464600000000	757.57932000000005	-42.37861200000000	0.20883200000000	0.00000000000000	-0.09573200000000	0.00000000000000	-17.95546300000000	0.00000000000000	0.00000000000000	-27.81411600000000	0.00000000000000	
18.12826200000000	-4.53880700000000	107.75300500000000	-18.49789300000000	0.43816100000000	0.00000000000000	0.08254100000000	-62.55262700000000	754.12302399999999	-41.82817700000000	0.20765400000000	0.00000000000000	-0.09565000000000	0.00000000000000	-17.91412600000000	0.00000000000000	0.00000000000000	-27.68317800000000	0.00000000000000	
18.12992800000000	-3.57940900000000	113.24854800000000	-18.22702400000000	0.43982800000000	0.00000000000000	0.08305700000000	-63.36505900000000	750.55201299999999	-41.26360800000000	0.20646900000000	0.00000000000000	-0.09556600000000	0.00000000000000	-17.82105200000000	0.00000000000000	0.00000000000000	-27.55074300000000	0.00000000000000	
18.13160000000000	-2.57149400000000	118.87525599999999	-17.90936800000000	0.44143200000000	0.00000000000000	0.08355100000000	-64.18066100000000	746.86375299999997	-40.68490100000000	0.20527900000000	0.00000000000000	-0.09548100000000	0.00000000000000	-17.69026900000000	0.00000000000000	0.00000000000000	-27.41664500000000	0.00000000000000	
18.13326800000000	-1.52434100000000	124.66369100000000	-17.55671900000000	0.44297700000000	0.00000000000000	0.08402600000000	-64.99805900000000	743.05566599999997	-40.09207100000000	0.20408400000000	0.00000000000000	-0.09539500000000	0.00000000000000	-17.53243100000000	0.00000000000000	0.00000000000000	-27.28070600000000	0.00000000000000	
18.13493000000000	-0.44433600000000	130.63529500000001	-17.17699000000000	0.44447000000000	0.00000000000000	0.08448200000000	-65.81579499999999	739.12514199999998	-39.48515500000000	0.20288500000000	0.00000000000000	-0.09530700000000	0.00000000000000	-17.35470000000000	0.00000000000000	0.00000000000000	-27.14273500000000	0.00000000000000	
18.13659500000000	0.66479200000000	136.80242100000001	-16.77443300000000	0.44591600000000	0.00000000000000	0.08492000000000	-66.63232200000000	735.06954399999995	-38.86421500000000	0.20168300000000	0.00000000000000	-0.09521700000000	0.00000000000000	-17.16091000000000	0.00000000000000	0.00000000000000	-27.00253400000000	0.00000000000000	
18.13826000000000	1.80158100000000	143.16901400000000	-16.35007700000000	0.44732000000000	0.00000000000000	0.08534100000000	-67.44601100000000	730.88622399999997	-38.22933900000000	0.20047800000000	0.00000000000000	-0.09512600000000	0.00000000000000	-16.95195300000000	0.00000000000000	0.00000000000000	-26.85988900000000	0.00000000000000	
18.13993300000000	2.96634800000000	149.73174399999999	-15.90234400000000	0.44868400000000	0.00000000000000	0.08574600000000	-68.25515300000001	726.57253400000002	-37.58064300000000	0.19927300000000	0.00000000000000	-0.09503300000000	0.00000000000000	-16.72630700000000	0.00000000000000	0.00000000000000	-26.71458200000000	0.00000000000000	
18.14160100000000	4.16065800000000	156.48144400000001	-15.42773000000000	0.45001300000000	0.00000000000000	0.08613600000000	-69.05795900000000	722.12583900000004	-36.91827200000000	0.19806800000000	0.00000000000000	-0.09493900000000	0.00000000000000	-16.48064900000000	0.00000000000000	0.00000000000000	-26.56638300000000	0.00000000000000	
18.14326900000000	5.38679700000000	163.40467599999999	-14.92150900000000	0.45130900000000	0.00000000000000	0.08651200000000	-69.85256699999999	717.54352800000004	-36.24240200000000	0.19686300000000	0.00000000000000	-0.09484300000000	0.00000000000000	-16.21049000000000	0.00000000000000	0.00000000000000	-26.41505200000000	0.00000000000000	
18.14492700000000	6.64728400000000	170.48529199999999	-14.37840100000000	0.45257400000000	0.00000000000000	0.08687300000000	-70.63704500000000	712.82303300000001	-35.55324000000000	0.19566100000000	0.00000000000000	-0.09474400000000	0.00000000000000	-15.91077700000000	0.00000000000000	0.00000000000000	-26.26034500000000	0.00000000000000	
18.14659400000000	7.94446300000000	177.70587599999999	-13.79315500000000	0.45381100000000	0.00000000000000	0.08722100000000	-71.40939299999999	707.96184500000004	-34.85102700000000	0.19446100000000	0.00000000000000	-0.09464400000000	0.00000000000000	-15.57643300000000	0.00000000000000	0.00000000000000	-26.10200800000000	0.00000000000000	
18.14826800000000	9.28017100000000	185.04897500000001	-13.16102300000000	0.45502000000000	0.00000000000000	0.08755500000000	-72.16755200000000	702.95752500000003	-34.13604100000000	0.19326600000000	0.00000000000000	-0.09454200000000	0.00000000000000	-15.20279200000000	0.00000000000000	0.00000000000000	-25.93978200000000	0.00000000000000	
18.14993600000000	10.65551100000000	192.49808500000000	-12.47811900000000	0.45620400000000	0.00000000000000	0.08787700000000	-72.90940399999999	697.80772800000000	-33.40859000000000	0.19207600000000	0.00000000000000	-0.09443800000000	0.00000000000000	-14.78593500000000	0.00000000000000	0.00000000000000	-25.77340100000000	0.00000000000000	
18.15160200000000	12.07071500000000	200.03835200000000	-11.74164100000000	0.45736200000000	0.00000000000000	0.08818600000000	-73.63278300000000	692.51021500000002	-32.66902300000000	0.19089300000000	0.00000000000000	-0.09433200000000	0.00000000000000	-14.32290400000000	0.00000000000000	0.00000000000000	-25.60259600000000	0.00000000000000	
